<svg xmlns="http://www.w3.org/2000/svg" width="166" height="45" viewBox="0 0 166 45" fill="none"><path d="M67.0435 29.5897C67.0435 32.2194 65.802 34.4744 63.3176 36.3561C60.8319 38.2363 57.8702 39.1778 54.4339 39.1778H44.8574V19.9776H53.1871C57.2158 19.9776 60.5318 20.8938 63.1378 22.7247C65.7425 24.5556 67.0435 26.844 67.0435 29.5897ZM64.4824 29.315C64.419 27.184 63.3123 25.3971 61.1664 23.9476C59.0205 22.4993 56.4912 21.7766 53.5798 21.7766H48.2924V37.3802H54.3017C57.1708 37.3802 59.6063 36.5801 61.6107 34.9838C63.6138 33.3836 64.5697 31.4967 64.4824 29.315Z" fill="#0E2E54"></path><path d="M91.2973 33.7837C91.3806 35.2972 90.3889 36.5761 88.3184 37.6216C86.2492 38.6671 83.8283 39.1885 81.0584 39.1885H70.563V20.183H79.9041C82.53 20.183 84.8001 20.627 86.712 21.5152C88.7415 22.454 89.7556 23.6382 89.7556 25.0704C89.7556 26.7653 88.4982 28.0815 85.9861 29.019C89.3828 29.9404 91.1518 31.5287 91.2973 33.7837ZM79.8354 21.9606H73.9901V28.3042H80.0073C81.7274 28.3042 83.24 28.0135 84.5436 27.4281C85.8473 26.8453 86.4965 26.0919 86.4965 25.1704C86.4965 24.1502 85.8103 23.3528 84.4339 22.7767C83.2029 22.2326 81.6706 21.9606 79.8354 21.9606ZM87.9112 33.5996C87.7975 32.4021 86.9698 31.4913 85.4268 30.8699C84.0253 30.3125 82.1571 30.0338 79.8169 30.0338H73.9901V37.3642H79.9861C82.5286 37.3642 84.5132 37.0201 85.9425 36.3307C87.3691 35.6399 88.0249 34.7305 87.9112 33.5996Z" fill="#0E2E54"></path><path d="M112.352 39.1778H102.357C99.7342 39.1778 97.5817 38.7711 95.8919 37.9603C94.2022 37.1482 93.3586 35.988 93.3586 34.4811V24.7637C93.3586 23.2568 94.2022 22.0966 95.8919 21.2832C97.5803 20.4724 99.7342 20.067 102.357 20.067H104.814V21.8566H102.331C100.516 21.8566 99.245 22.0539 98.5217 22.4527C97.3701 23.1168 96.7963 23.7782 96.7963 24.4396V28.5656H112.348V30.4045H96.795V34.8132C96.795 35.4733 97.3688 36.1334 98.5204 36.7935C99.2436 37.1895 100.514 37.3882 102.33 37.3882H112.352V39.1778Z" fill="#0E2E54"></path><path d="M136.253 26.2452C136.197 27.7441 135.369 29.0376 133.768 30.1271C132.167 31.2166 130.186 31.8287 127.825 31.9621L126.929 32.0168L135.595 39.1778H131.739L121.164 30.4899H124.214C126.952 30.4899 129.122 30.0578 130.723 29.191C132.322 28.3255 133.069 27.236 132.96 25.9212C132.878 24.7237 132.174 23.7489 130.844 23.0008C129.406 22.1846 127.51 21.7779 125.15 21.7779H118.155V39.1791H114.937V19.979H124.944C128.413 19.979 131.182 20.5644 133.243 21.7392C135.305 22.9114 136.307 24.4156 136.253 26.2452Z" fill="#0E2E54"></path><path d="M155.542 22.7447H147.803V39.1778H144.443V22.7447H136.747V20.1843H155.542V22.7447Z" fill="#0E2E54"></path><path d="M30.7035 5.4328L28.079 13.5727L35.9168 38.7137H32.737L29.6299 29.2417H24.8661L24.6797 29.8031H29.2266L32.3351 39.2751H41.4951L30.7035 5.4328Z" fill="#0E2E54"></path><path d="M19.7915 39.2832L28.0789 13.5727L28.0709 13.5447L19.7915 39.2832Z" fill="#2D81C5"></path><path d="M30.369 4.38332L19.387 38.7217L18.6439 38.7137L29.6219 4.35532L22.5232 4.442L11.3442 39.2765L19.7916 39.2832L28.071 13.5447L28.079 13.5727L30.7035 5.43281L30.369 4.38332Z" fill="#2D81C5"></path></svg>